<svg height="180px" width="500px" viewBox="0 0 361 45" preserveAspectRatio="none"  xmlns="http://www.w3.org/2000/svg">
<path d="M 0 27 L 0 25.700001 L 1 32.400002 L 2 32.299999 L 3 29.700001 L 4 30.000000 L 5 30.400000 L 6 31.700001 L 7 31.700001 L 8 29.900000 L 9 33.299999 L 10 34.299999 L 11 31.799999 L 12 32.599998 L 13 36.900002 L 14 39.599998 L 15 37.500000 L 16 35.400002 L 17 44.799999 L 18 42.200001 L 19 36.299999 L 20 40.099998 L 21 42.400002 L 22 40.799999 L 23 38.400002 L 24 35.200001 L 25 33.099998 L 26 38.200001 L 27 41.400002 L 28 33.700001 L 29 34.700001 L 30 28.400000 L 31 26.799999 L 32 26.200001 L 33 24.600000 L 34 24.600000 L 35 29.200001 L 36 33.500000 L 37 31.900000 L 38 34.599998 L 39 31.799999 L 40 31.700001 L 41 36.599998 L 42 38.000000 L 43 41.599998 L 44 43.299999 L 45 43.799999 L 46 41.900002 L 47 38.700001 L 48 32.599998 L 49 28.299999 L 50 24.400000 L 51 24.900000 L 52 26.100000 L 53 26.600000 L 54 30.400000 L 55 34.799999 L 56 41.400002 L 57 38.099998 L 58 33.599998 L 59 30.100000 L 60 25.900000 L 61 38.400002 L 62 36.099998 L 63 26.100000 L 64 31.600000 L 65 36.500000 L 66 26.500000 L 67 25.500000 L 68 35.799999 L 69 33.200001 L 70 24.700001 L 71 29.299999 L 72 33.799999 L 73 31.100000 L 74 27.600000 L 75 22.500000 L 76 24.100000 L 77 29.000000 L 78 28.500000 L 79 20.000000 L 80 21.400000 L 81 21.400000 L 82 24.799999 L 83 21.900000 L 84 19.200001 L 85 20.500000 L 86 21.299999 L 87 15.500000 L 88 21.799999 L 89 27.700001 L 90 27.799999 L 91 24.200001 L 92 25.000000 L 93 29.799999 L 94 30.000000 L 95 27.400000 L 96 28.900000 L 97 27.299999 L 98 26.299999 L 99 25.299999 L 100 25.100000 L 101 17.799999 L 102 19.500000 L 103 21.500000 L 104 8.799999 L 105 12.200000 L 106 27.799999 L 107 27.000000 L 108 23.000000 L 109 20.700001 L 110 19.900000 L 111 21.299999 L 112 20.600000 L 113 22.500000 L 114 19.799999 L 115 20.799999 L 116 16.799999 L 117 10.799999 L 118 8.600000 L 119 17.100000 L 120 16.600000 L 121 13.900000 L 122 16.799999 L 123 17.700001 L 124 16.000000 L 125 18.200001 L 126 12.400000 L 127 17.299999 L 128 17.200001 L 129 14.900000 L 130 17.900000 L 131 20.100000 L 132 18.799999 L 133 16.700001 L 134 17.000000 L 135 19.500000 L 136 18.600000 L 137 14.700000 L 138 11.500000 L 139 8.900000 L 140 13.000000 L 141 15.400000 L 142 17.700001 L 143 19.299999 L 144 15.100000 L 145 16.700001 L 146 14.600000 L 147 13.900000 L 148 10.799999 L 149 9.700001 L 150 11.600000 L 151 13.300000 L 152 12.000000 L 153 11.700000 L 154 13.100000 L 155 14.600000 L 156 8.600000 L 157 11.600000 L 158 12.500000 L 159 13.700000 L 160 9.900000 L 161 9.299999 L 162 8.900000 L 163 12.800000 L 164 12.200000 L 165 9.799999 L 166 14.700000 L 167 12.000000 L 168 12.300000 L 169 8.000000 L 170 8.799999 L 171 9.500000 L 172 11.400000 L 173 9.200001 L 174 2.799999 L 175 1.500000 L 176 3.100000 L 177 5.600000 L 178 5.700001 L 179 5.700001 L 180 6.900000 L 181 7.500000 L 182 5.600000 L 183 4.100000 L 184 0.900000 L 185 2.100000 L 186 4.900000 L 187 2.299999 L 188 6.600000 L 189 9.700001 L 190 12.100000 L 191 7.500000 L 192 6.700001 L 193 8.100000 L 194 8.600000 L 195 8.700001 L 196 5.900000 L 197 7.600000 L 198 7.600000 L 199 6.900000 L 200 5.200001 L 201 3.400000 L 202 3.900000 L 203 3.799999 L 204 4.200001 L 205 4.600000 L 206 2.799999 L 207 6.400000 L 208 7.100000 L 209 6.400000 L 210 7.200001 L 211 11.200000 L 212 8.900000 L 213 6.900000 L 214 5.900000 L 215 4.299999 L 216 3.799999 L 217 5.600000 L 218 5.600000 L 219 4.400000 L 220 2.500000 L 221 2.799999 L 222 4.900000 L 223 4.600000 L 224 4.600000 L 225 4.900000 L 226 5.100000 L 227 7.400000 L 228 7.600000 L 229 5.600000 L 230 3.700001 L 231 3.400000 L 232 2.500000 L 233 7.000000 L 234 11.000000 L 235 8.500000 L 236 7.500000 L 237 4.500000 L 238 11.100000 L 239 8.500000 L 240 6.600000 L 241 13.400000 L 242 11.400000 L 243 12.800000 L 244 11.900000 L 245 10.799999 L 246 8.700001 L 247 11.100000 L 248 9.000000 L 249 10.500000 L 250 14.800000 L 251 13.000000 L 252 10.799999 L 253 12.100000 L 254 11.800000 L 255 7.799999 L 256 7.600000 L 257 8.500000 L 258 11.700000 L 259 9.700001 L 260 5.799999 L 261 10.600000 L 262 11.200000 L 263 10.600000 L 264 12.500000 L 265 10.700001 L 266 12.500000 L 267 10.600000 L 268 8.799999 L 269 12.800000 L 270 16.600000 L 271 18.500000 L 272 18.299999 L 273 20.000000 L 274 18.700001 L 275 19.600000 L 276 21.200001 L 277 20.299999 L 278 15.000000 L 279 13.600000 L 280 14.800000 L 281 15.500000 L 282 15.300000 L 283 13.200000 L 284 16.799999 L 285 13.400000 L 286 18.100000 L 287 20.200001 L 288 20.200001 L 289 22.700001 L 290 23.299999 L 291 16.900000 L 292 24.700001 L 293 24.900000 L 294 22.799999 L 295 13.900000 L 296 11.400000 L 297 17.100000 L 298 15.300000 L 299 18.400000 L 300 17.799999 L 301 11.300000 L 302 17.299999 L 303 17.600000 L 304 22.100000 L 305 23.600000 L 306 17.900000 L 307 19.600000 L 308 26.200001 L 309 29.200001 L 310 28.299999 L 311 27.200001 L 312 21.299999 L 313 19.100000 L 314 26.700001 L 315 27.400000 L 316 25.200001 L 317 25.799999 L 318 24.799999 L 319 18.700001 L 320 17.500000 L 321 20.200001 L 322 23.000000 L 323 24.600000 L 324 23.299999 L 325 23.200001 L 326 27.400000 L 327 23.200001 L 328 19.900000 L 329 20.200001 L 330 23.000000 L 331 24.299999 L 332 32.299999 L 333 33.900002 L 334 32.700001 L 335 35.000000 L 336 33.000000 L 337 29.700001 L 338 29.799999 L 339 34.200001 L 340 30.700001 L 341 19.500000 L 342 25.600000 L 343 32.599998 L 344 35.099998 L 345 29.400000 L 346 29.400000 L 347 24.600000 L 348 25.600000 L 349 28.900000 L 350 30.200001 L 351 31.600000 L 352 27.200001 L 353 26.600000 L 354 22.400000 L 355 21.799999 L 356 25.000000 L 357 25.500000 L 358 27.500000 L 359 24.299999 L 360 23.500000 L 361 22.900000 L 361 27 Z" stroke="transparent" fill="pink" />
<path d="M 0 25.700001 L 1 32.400002 L 2 32.299999 L 3 29.700001 L 4 30.000000 L 5 30.400000 L 6 31.700001 L 7 31.700001 L 8 29.900000 L 9 33.299999 L 10 34.299999 L 11 31.799999 L 12 32.599998 L 13 36.900002 L 14 39.599998 L 15 37.500000 L 16 35.400002 L 17 44.799999 L 18 42.200001 L 19 36.299999 L 20 40.099998 L 21 42.400002 L 22 40.799999 L 23 38.400002 L 24 35.200001 L 25 33.099998 L 26 38.200001 L 27 41.400002 L 28 33.700001 L 29 34.700001 L 30 28.400000 L 31 26.799999 L 32 26.200001 L 33 24.600000 L 34 24.600000 L 35 29.200001 L 36 33.500000 L 37 31.900000 L 38 34.599998 L 39 31.799999 L 40 31.700001 L 41 36.599998 L 42 38.000000 L 43 41.599998 L 44 43.299999 L 45 43.799999 L 46 41.900002 L 47 38.700001 L 48 32.599998 L 49 28.299999 L 50 24.400000 L 51 24.900000 L 52 26.100000 L 53 26.600000 L 54 30.400000 L 55 34.799999 L 56 41.400002 L 57 38.099998 L 58 33.599998 L 59 30.100000 L 60 25.900000 L 61 38.400002 L 62 36.099998 L 63 26.100000 L 64 31.600000 L 65 36.500000 L 66 26.500000 L 67 25.500000 L 68 35.799999 L 69 33.200001 L 70 24.700001 L 71 29.299999 L 72 33.799999 L 73 31.100000 L 74 27.600000 L 75 22.500000 L 76 24.100000 L 77 29.000000 L 78 28.500000 L 79 20.000000 L 80 21.400000 L 81 21.400000 L 82 24.799999 L 83 21.900000 L 84 19.200001 L 85 20.500000 L 86 21.299999 L 87 15.500000 L 88 21.799999 L 89 27.700001 L 90 27.799999 L 91 24.200001 L 92 25.000000 L 93 29.799999 L 94 30.000000 L 95 27.400000 L 96 28.900000 L 97 27.299999 L 98 26.299999 L 99 25.299999 L 100 25.100000 L 101 17.799999 L 102 19.500000 L 103 21.500000 L 104 8.799999 L 105 12.200000 L 106 27.799999 L 107 27.000000 L 108 23.000000 L 109 20.700001 L 110 19.900000 L 111 21.299999 L 112 20.600000 L 113 22.500000 L 114 19.799999 L 115 20.799999 L 116 16.799999 L 117 10.799999 L 118 8.600000 L 119 17.100000 L 120 16.600000 L 121 13.900000 L 122 16.799999 L 123 17.700001 L 124 16.000000 L 125 18.200001 L 126 12.400000 L 127 17.299999 L 128 17.200001 L 129 14.900000 L 130 17.900000 L 131 20.100000 L 132 18.799999 L 133 16.700001 L 134 17.000000 L 135 19.500000 L 136 18.600000 L 137 14.700000 L 138 11.500000 L 139 8.900000 L 140 13.000000 L 141 15.400000 L 142 17.700001 L 143 19.299999 L 144 15.100000 L 145 16.700001 L 146 14.600000 L 147 13.900000 L 148 10.799999 L 149 9.700001 L 150 11.600000 L 151 13.300000 L 152 12.000000 L 153 11.700000 L 154 13.100000 L 155 14.600000 L 156 8.600000 L 157 11.600000 L 158 12.500000 L 159 13.700000 L 160 9.900000 L 161 9.299999 L 162 8.900000 L 163 12.800000 L 164 12.200000 L 165 9.799999 L 166 14.700000 L 167 12.000000 L 168 12.300000 L 169 8.000000 L 170 8.799999 L 171 9.500000 L 172 11.400000 L 173 9.200001 L 174 2.799999 L 175 1.500000 L 176 3.100000 L 177 5.600000 L 178 5.700001 L 179 5.700001 L 180 6.900000 L 181 7.500000 L 182 5.600000 L 183 4.100000 L 184 0.900000 L 185 2.100000 L 186 4.900000 L 187 2.299999 L 188 6.600000 L 189 9.700001 L 190 12.100000 L 191 7.500000 L 192 6.700001 L 193 8.100000 L 194 8.600000 L 195 8.700001 L 196 5.900000 L 197 7.600000 L 198 7.600000 L 199 6.900000 L 200 5.200001 L 201 3.400000 L 202 3.900000 L 203 3.799999 L 204 4.200001 L 205 4.600000 L 206 2.799999 L 207 6.400000 L 208 7.100000 L 209 6.400000 L 210 7.200001 L 211 11.200000 L 212 8.900000 L 213 6.900000 L 214 5.900000 L 215 4.299999 L 216 3.799999 L 217 5.600000 L 218 5.600000 L 219 4.400000 L 220 2.500000 L 221 2.799999 L 222 4.900000 L 223 4.600000 L 224 4.600000 L 225 4.900000 L 226 5.100000 L 227 7.400000 L 228 7.600000 L 229 5.600000 L 230 3.700001 L 231 3.400000 L 232 2.500000 L 233 7.000000 L 234 11.000000 L 235 8.500000 L 236 7.500000 L 237 4.500000 L 238 11.100000 L 239 8.500000 L 240 6.600000 L 241 13.400000 L 242 11.400000 L 243 12.800000 L 244 11.900000 L 245 10.799999 L 246 8.700001 L 247 11.100000 L 248 9.000000 L 249 10.500000 L 250 14.800000 L 251 13.000000 L 252 10.799999 L 253 12.100000 L 254 11.800000 L 255 7.799999 L 256 7.600000 L 257 8.500000 L 258 11.700000 L 259 9.700001 L 260 5.799999 L 261 10.600000 L 262 11.200000 L 263 10.600000 L 264 12.500000 L 265 10.700001 L 266 12.500000 L 267 10.600000 L 268 8.799999 L 269 12.800000 L 270 16.600000 L 271 18.500000 L 272 18.299999 L 273 20.000000 L 274 18.700001 L 275 19.600000 L 276 21.200001 L 277 20.299999 L 278 15.000000 L 279 13.600000 L 280 14.800000 L 281 15.500000 L 282 15.300000 L 283 13.200000 L 284 16.799999 L 285 13.400000 L 286 18.100000 L 287 20.200001 L 288 20.200001 L 289 22.700001 L 290 23.299999 L 291 16.900000 L 292 24.700001 L 293 24.900000 L 294 22.799999 L 295 13.900000 L 296 11.400000 L 297 17.100000 L 298 15.300000 L 299 18.400000 L 300 17.799999 L 301 11.300000 L 302 17.299999 L 303 17.600000 L 304 22.100000 L 305 23.600000 L 306 17.900000 L 307 19.600000 L 308 26.200001 L 309 29.200001 L 310 28.299999 L 311 27.200001 L 312 21.299999 L 313 19.100000 L 314 26.700001 L 315 27.400000 L 316 25.200001 L 317 25.799999 L 318 24.799999 L 319 18.700001 L 320 17.500000 L 321 20.200001 L 322 23.000000 L 323 24.600000 L 324 23.299999 L 325 23.200001 L 326 27.400000 L 327 23.200001 L 328 19.900000 L 329 20.200001 L 330 23.000000 L 331 24.299999 L 332 32.299999 L 333 33.900002 L 334 32.700001 L 335 35.000000 L 336 33.000000 L 337 29.700001 L 338 29.799999 L 339 34.200001 L 340 30.700001 L 341 19.500000 L 342 25.600000 L 343 32.599998 L 344 35.099998 L 345 29.400000 L 346 29.400000 L 347 24.600000 L 348 25.600000 L 349 28.900000 L 350 30.200001 L 351 31.600000 L 352 27.200001 L 353 26.600000 L 354 22.400000 L 355 21.799999 L 356 25.000000 L 357 25.500000 L 358 27.500000 L 359 24.299999 L 360 23.500000 L 361 22.900000 " stroke-width="2" stroke="red" fill="transparent" vector-effect="non-scaling-stroke" />
</svg>